<svg xmlns="http://www.w3.org/2000/svg" xmlns:xlink="http://www.w3.org/1999/xlink" width="970px" height="430px" viewBox="0 0 970 430" preserveAspectRatio="xMidYMid meet"  ><defs id="svgEditorDefs"><linearGradient gradientUnits="objectBoundingBox" id="lgrd2-black-white" spreadMethod="pad" x1="0%" x2="100%" y1="0%" y2="100%"><stop offset="0%" stop-color="black"/><stop offset="100%" stop-color="white"/></linearGradient><polygon id="svgEditorShapeDefs" fill="khaki" stroke="black" style="vector-effect: non-scaling-stroke; stroke-width: 1px;"/></defs><rect id="svgEditorBackground" x="0" y="0" width="970" height="430" style="fill: none; stroke: none;"/><text fill="url(&quot;#lgrd2-black-white&quot;)" x="361" y="125" id="e1_texte" style="font-family: Arial; font-size: 60px;"  dy="" dx="">P</text><text fill="black" x="-7.63365e+08" y="-2.68436e+08" id="e2_texte" style="font-family: Arial; font-size: 20px;"></text><text fill="black" x="-1.57706e+09" y="-4.86541e+08" id="e3_texte" style="font-family: Arial; font-size: 20px;"></text><text fill="black" x="-3.01152e+09" y="-1.49318e+09" id="e4_texte" style="font-family: Arial; font-size: 20px;"></text><text fill="black" x="-2.89408e+09" y="-1.09052e+09" id="e5_texte" style="font-family: Arial; font-size: 20px;"></text><text fill="black" x="94" y="65" id="e6_texte" style="font-family: Arial; font-size: 20px;" transform="matrix(0.765907 0.642952 -0.642952 0.765907 63.7966 -45.2214)"></text><path d="M705.8999306308813,-44.026604551290404c-35.29899999999998,0,-64.00599999999997,28.717,-64.00599999999997,63.984c0,35.285000000000004,28.706999999999994,64.013,64.00599999999997,64.013c35.25199999999995,0,64.029,-28.727000000000004,64.029,-64.013c0,-35.267,-28.775999999999954,-63.984,-64.029,-63.984ZM705.8999306308813,-34.653604551290385c13.880999999999972,0,26.583999999999946,5.258000000000003,36.245000000000005,13.772999999999996c-0.9930000000000518,1.4549999999999983,-9.192000000000007,12.502000000000002,-28.660999999999945,19.796c-8.995000000000005,-16.454,-18.88499999999999,-30.002,-20.423000000000002,-32.061c4.115000000000009,-0.9480000000000004,8.438999999999965,-1.5079999999999956,12.838999999999942,-1.5079999999999956ZM682.5999306308813,-29.40260455129041c1.4750000000000227,1.9450000000000003,11.261999999999944,15.460999999999999,20.30899999999997,31.606c-25.539999999999964,6.7379999999999995,-48.077999999999975,6.674999999999997,-50.54099999999994,6.650999999999996c3.548999999999978,-16.989000000000004,14.995000000000005,-31.060999999999996,30.230999999999995,-38.257ZM651.2259306308813,20.019395448709588c0,-0.5069999999999979,0,-1.097999999999999,0,-1.6460000000000008c2.4039999999999964,0.04800000000000182,28.88499999999999,0.3950000000000031,56.153999999999996,-7.773000000000003c1.629000000000019,3.076999999999998,3.125,6.188000000000002,4.508000000000038,9.286999999999999c-0.7060000000000173,0.18099999999999739,-1.4529999999999745,0.4169999999999945,-2.216000000000008,0.6459999999999937c-28.133000000000038,9.084999999999994,-43.16399999999999,33.95700000000001,-44.339000000000055,36.083c-8.759000000000015,-9.716999999999999,-14.106999999999971,-22.53099999999999,-14.106999999999971,-36.597ZM705.8999306308813,74.73139544870958c-12.654999999999973,0,-24.327999999999975,-4.340999999999994,-33.55899999999997,-11.585999999999999c0.9930000000000518,-1.9590000000000032,12.077999999999975,-23.352000000000004,42.89700000000005,-34.09c0.10400000000004184,-0.06900000000000261,0.23699999999996635,-0.0969999999999942,0.3229999999999791,-0.1389999999999958c7.677999999999997,19.976,10.890999999999963,36.67399999999999,11.682999999999993,41.453c-6.500999999999976,2.7789999999999964,-13.773000000000025,4.361999999999995,-21.34400000000005,4.361999999999995ZM736.4129306308814,65.38339544870959c-0.5009999999999764,-3.346999999999994,-3.4349999999999454,-19.358000000000004,-10.616999999999962,-38.97200000000001c17.152000000000044,-2.7369999999999948,32.245000000000005,1.7009999999999934,34.11400000000003,2.3130000000000024c-2.48599999999999,15.224000000000004,-11.248000000000047,28.332000000000008,-23.496999999999957,36.66ZM722.4859306308813,17.7483954487096c-0.3650000000000091,-0.8999999999999986,-0.7430000000000518,-1.868000000000002,-1.13900000000001,-2.7879999999999967c-1.191000000000031,-2.6670000000000016,-2.407000000000039,-5.334000000000003,-3.65300000000002,-7.948999999999998c20.226,-8.247999999999998,29.384000000000015,-19.965,30.561000000000035,-21.528c7.596000000000004,9.268999999999998,12.225000000000023,21.125,12.255999999999972,34.058c-1.7509999999999764,-0.3890000000000029,-19.82000000000005,-4.076999999999998,-38.02499999999998,-1.7920000000000016Z" stroke="black" id="e8_shape" style="vector-effect: non-scaling-stroke; stroke-width: 1px; fill: none;" transform="matrix(0.294235 0 0 0.294235 212.293 102.615)"/><path d="M23.34177215189874,6.075949367088611v-1.4999999999999991a2,2,0,0,0,-2,-2.000000000000001h-4a2,2,0,0,0,-2,2.000000000000001v3a2,2,0,0,0,2,2h4a2,2,0,0,0,2,-2Z" stroke="black" id="e9_shape" style="vector-effect: non-scaling-stroke; stroke-width: 1px; fill: none;" transform="matrix(11.072 0 0 9.875 186.348 45.0625)"/></svg>